#!OML:ASF X:\für Bonn\!DataBase\2005_08_10_Bjorn_Final\c3d\bjorn.ASF
:FULLY-SPECIFIED
:DEGREES
458
root -0.584869 1.59254 11.1399 -2442.22 -6.88863 198.05
lowerback 14.1772 -0.568439 -10.2184
upperback 6.51799 -2.74025 -4.00054
thorax -0.755508 -1.80184 1.92247
lowerneck -16.1362 -2.24605 -2.21461
upperneck 9.15827 -2.24208 -2.17383
head 5.38563 -1.33743 -0.535843
rclavicle -7.95139e-015 -3.18055e-014
rhumerus -391.464 28.1246 305.597
rradius 116.455
rwrist -8.03242
rhand -28.1893 15.9746
rfingers 7.12502
rthumb -1.56872 -13.9994
lclavicle -7.95139e-015 -3.18055e-014
lhumerus -23.576 -32.3843 57.8692
lradius 89.0093
lwrist -23.0742
lhand -58.089 -26.8806
lfingers 7.12502
lthumb -30.3308 720.646
rfemur -204.667 -156.066 162.664
rtibia 100.516
rfoot 42.2037 11.09
rtoes 4.72195
lfemur 141.912 182.77 162.445
ltibia 102.73
lfoot 33.4244 3.20565
ltoes -5.62255
459
root -0.579894 1.59323 11.1341 -2442.14 -6.92285 197.983
lowerback 14.048 -0.647098 -10.2757
upperback 6.44224 -2.82348 -3.97832
thorax -0.752768 -1.83487 1.98558
lowerneck -16.4703 -2.27122 -2.20034
upperneck 9.43193 -2.27843 -2.03404
head 5.52749 -1.34809 -0.50406
rclavicle -3.33958e-014 -4.85035e-014
rhumerus -392.069 28.5806 305.36
rradius 116.887
rwrist -7.7863
rhand -28.3767 15.9291
rfingers 7.12502
rthumb -1.74978 -14.0434
lclavicle -3.33958e-014 -4.85035e-014
lhumerus -23.8126 -32.3933 57.9667
lradius 89.2436
lwrist -23.2394
lhand -58.045 -26.1935
lfingers 7.12502
lthumb -30.2888 721.341
rfemur -204.81 -155.993 162.65
rtibia 100.581
rfoot 42.264 11.1203
rtoes 4.8898
lfemur 141.912 182.895 162.335
ltibia 102.584
lfoot 33.4251 3.4245
ltoes -5.68217
460
root -0.575649 1.59398 11.1274 -2442.05 -6.9583 197.897
lowerback 13.9089 -0.712332 -10.3018
upperback 6.35959 -2.88592 -3.97692
thorax -0.757166 -1.85656 2.0067
lowerneck -16.7844 -2.30923 -2.17965
upperneck 9.70511 -2.34007 -1.85717
head 5.66662 -1.36715 -0.463655
rclavicle 4.77083e-015 -5.38706e-014
rhumerus -392.721 29.0006 305.064
rradius 117.292
rwrist -7.50365
rhand -28.4568 15.8951
rfingers 7.12502
rthumb -1.82708 -14.0769
lclavicle 4.77083e-015 -5.38706e-014
lhumerus -24.0341 -32.4125 58.0917
lradius 89.4202
lwrist -23.3727
lhand -57.9557 -25.7366
lfingers 7.12502
lthumb -30.2036 721.814
rfemur -204.965 -155.898 162.631
rtibia 100.651
rfoot 42.3271 11.2515
rtoes 5.04316
lfemur 141.912 183.02 162.226
ltibia 102.43
lfoot 33.4096 3.74703
ltoes -5.45918
461
root -0.570865 1.59436 11.1197 -2441.94 -6.98101 197.818
lowerback 13.7482 -0.778102 -10.3266
upperback 6.28714 -2.94436 -3.95613
thorax -0.738275 -1.87786 2.04546
lowerneck -17.1168 -2.36301 -2.17493
upperneck 9.98639 -2.41657 -1.70564
head 5.81169 -1.39556 -0.430512
rclavicle -1.74931e-014 1.61016e-014
rhumerus -393.344 29.4163 304.755
rradius 117.64
rwrist -7.19398
rhand -28.4978 15.7925
rfingers 7.12502
rthumb -1.86668 -14.1791
lclavicle -1.74931e-014 1.61016e-014
lhumerus -24.2124 -32.4137 58.2525
lradius 89.5378
lwrist -23.4929
lhand -57.8553 -25.25
lfingers 7.12502
lthumb -30.1079 722.318
rfemur -205.136 -155.787 162.625
rtibia 100.732
rfoot 42.3919 11.3362
rtoes 5.22523
lfemur 141.887 183.15 162.122
ltibia 102.277
lfoot 33.4121 3.93577
ltoes -5.53087
